<?xml version="1.0" encoding="utf-8"?>
<!-- Generator: Adobe Illustrator 22.1.0, SVG Export Plug-In . SVG Version: 6.00 Build 0)  -->
<svg version="1.1" id="Layer_1" xmlns="http://www.w3.org/2000/svg" xmlns:xlink="http://www.w3.org/1999/xlink" x="0px" y="0px"
	 viewBox="0 0 500 500" style="enable-background:new 0 0 500 500;" xml:space="preserve">
<style type="text/css">
	.st0{fill:#FCC61A;}
	.st1{fill:#51CA00;}
</style>
<g>
	<g>
		<g>
			<path class="st0" d="M338.3,268.4c0,0,6.4,10.9,7.6,14.6c1.3,4,2.1,16.4,2.1,16.4c0.3,2.3-0.4,2.6-1.7,0.6c0,0-0.4-0.6-1.8-2.8
				c-1-1.7-2.2-3.3-3.3-5c-1.2-1.7-2.4-3.4-3.6-5.2c-1.2-1.8-2.5-3.5-3.9-5.2c-0.7-1-0.7-1-0.7-1c-0.8-1.1-1.5-2-1.5-2
				c0,0,0.7-1.8,1.5-3.9l2.1-6.3C335.8,266.5,337.3,266.4,338.3,268.4z"/>
			<path class="st0" d="M270.3,297.6c0,0-5.3-4.6-9.5-8.2c-3.3-2.8-6.8-5.7-6.8-5.7c-1.8-1.5-1.9-4-0.2-5.5c0,0,2.6-2.4,5.3-5
				c5.4-5,12.5-11.8,12.5-11.8c1.7-1.6,4.1-2,5.3-0.9c0,0,0,0,1.2,1c1.4,1.3,2.8,2.6,4.3,3.9c2.9,2.6,5.7,5.3,8.6,8
				c1.4,1.3,1.4,1.3,1.4,1.3c1.5,1.5,1.5,4.1-0.1,5.9c0,0-7.9,8.7-13.7,14.7c-1.7,1.7-2.2,2.3-2.2,2.3
				C274.8,299.1,272,299.2,270.3,297.6z"/>
			<path class="st0" d="M279.1,312.5c5.8,5.3,13.9,13.3,13.9,13.3c1.6,1.6,1.8,4.4,0.4,6.3c0,0-2.6,3.3-5.2,6.6
				c-3.7,4.6-8.6,10.6-8.6,10.6c-1.5,1.8-4.1,2-5.9,0.6c0,0-9.1-7.5-15.4-12.5c-2.9-2.3-5.3-4.2-5.3-4.2c-1.8-1.4-1.9-3.9-0.3-5.5
				c0,0,5.5-5.3,9.6-9.4c3.7-3.6,8-8,8-8c1.6-1.6,4.4-1.7,6.1-0.2C276.5,310.1,277.2,310.8,279.1,312.5z"/>
			<path class="st0" d="M257.4,293.3c4.1,3.5,9.2,8,9.2,8c1.7,1.5,1.8,4.1,0.1,5.7c0,0-4.2,4.1-7.9,7.6c-4.3,4.2-10.2,9.7-10.2,9.7
				c-1.7,1.6-4.5,1.7-6.3,0.3c0,0-3.3-2.7-6.6-5.3c-4.6-3.7-10.3-8.4-10.3-8.4c-1.8-1.5-1.9-4-0.2-5.6c0,0,8-7.9,13.6-13.1
				c2.8-2.6,5.2-4.9,5.2-4.9c1.7-1.6,4.5-1.6,6.3-0.1C250.3,287.2,254,290.3,257.4,293.3z"/>
			<path class="st0" d="M239.3,333.2c0,0,0,0-1.3,1.2c-6.1,5.9-15.3,14.8-15.3,14.8c-1.7,1.6-4.3,1.5-5.9-0.1c0,0-4.3-4.6-7.8-8.5
				c-2.9-3.2-5.7-6.4-5.7-6.4c-1.5-1.7-1.5-4.5,0.1-6.3c0,0,8.7-9.5,14.8-15.6c0.2-0.2,0.2-0.2,0.2-0.2c0.2-0.2,1.8,0.9,3.5,2.4
				c0,0,5.8,5,10.5,8.8c3.1,2.5,6.1,4.9,6.1,4.9C240.4,329.6,240.7,331.9,239.3,333.2z"/>
			<path class="st0" d="M240.2,284c0,0-2.2,2-4.9,4.5c-5.7,5.3-14.1,13.5-14.1,13.5c-1.7,1.6-4.2,1.9-5.7,0.7c0,0,0,0-1.3-1.1
				c-6.5-5.6-15.2-13.7-15.2-13.7c-1.7-1.6-2.4-3.7-1.5-4.7c0,0,0,0,0.8-0.9c1.3-1.5,2.7-3,4-4.5c1.3-1.5,2.7-3,4-4.4
				c2.8-2.9,5.4-5.7,8.2-8.5c1.4-1.4,2.7-2.8,4.1-4.1c0.2-0.1,0.2-0.1,0.2-0.1c0.2-0.2,1.7,1,3.5,2.5c0,0,7.9,7,13.8,12
				c2.4,2,4.1,3.5,4.1,3.5C241.9,280,241.9,282.5,240.2,284z"/>
			<path class="st0" d="M211.2,305c1.2,1.1,1.2,1.1,1.2,1.1c1.3,1.2,2.3,2.2,2.2,2.3c0,0,0,0-0.1,0.1c-5.9,6-14.4,15.4-14.4,15.4
				c-1.5,1.7-4,1.7-5.5-0.1c0,0-1-1.2-2.7-3.3c-4.2-5.2-9.4-12-9.4-12c-1.4-1.8-1.6-4.6-0.4-6.2c0,0,0,0,1.1-1.4
				c1.2-1.6,1.2-1.6,1.2-1.6c1.3-1.8,3.3-4.2,4.3-5.5c1-1.3,2.3-2.9,2.9-3.5c0.5-0.6,1.2-1.4,1.4-1.7c0.2-0.3,1.8,0.8,3.4,2.4
				C196.4,290.9,204.9,299.4,211.2,305z"/>
			<path class="st0" d="M200.1,337.9c0,0,2.5,3,5.3,6c3.5,4,7.9,8.7,7.9,8.7c1.6,1.7,1.5,4.4-0.1,6.1c0,0-9.4,9.6-15.2,15.8
				c-1.7,1.9-2.3,2.5-2.3,2.5c-1.5,1.7-4.1,1.7-5.6,0c0,0-1.3-1.4-3.3-3.8c-3.4-4.1-7.2-8.9-7.2-8.9c-1.4-1.8-1.5-4.9-0.2-6.8
				c0,0,0.6-0.8,2.1-3c2.6-3.6,5.4-7.2,8.3-10.8c2.5-3,4.9-5.9,4.9-5.9C196.2,336.1,198.6,336.1,200.1,337.9z"/>
			<path class="st0" d="M198.8,380.4c0,0,0.7-0.8,2.6-2.7c5.8-6.1,15.2-15.3,15.2-15.3c1.6-1.6,4.3-1.6,5.9,0.1c0,0,0.1,0.1,1.6,1.7
				c6.4,6.6,12.9,13.2,19.3,19.6c1.2,1.2,1.2,1.2,1.2,1.2c1.3,1.3,1.1,3.7-0.4,5.5c0,0-5.1,5.8-8.9,10.2c-3.4,3.8-7.1,8.1-7.1,8.1
				c-1.5,1.7-4.2,1.9-5.9,0.4c0,0-0.1-0.1-1.8-1.6c-5.9-5.3-11.7-10.8-17.3-16.6c-2.4-2.4-4.2-4.3-4.2-4.3
				C197.3,384.9,197.2,382.1,198.8,380.4z"/>
			<path class="st0" d="M227.8,360.6c-1.5-1.6-1.6-1.7-1.6-1.7c-1.6-1.7-1.5-4.3,0.1-6c0,0,9.2-8.8,15.4-14.7
				c1.4-1.4,1.4-1.4,1.4-1.4c1.6-1.5,4.3-1.5,6.1-0.1c0,0,2.8,2.2,5.8,4.7c6.3,5,15.3,12.3,15.3,12.3c1.8,1.4,2.4,3.7,1.3,4.9
				c0,0,0,0-1,1.1c-5.9,7-12,14-18,20.8c-0.9,1-0.9,1-0.9,1c-0.9,1.1-2.7,0.9-3.8-0.3c0,0,0,0-1.1-1.1
				C240.6,373.8,234.2,367.2,227.8,360.6z"/>
			<path class="st0" d="M255.6,385c0,0,0,0,0.9-1c6-6.8,12.1-13.7,18.2-20.8c1-1.2,1-1.2,1-1.2c1.1-1.3,3.4-1.2,5.2,0.3
				c0,0,11.1,9.2,17.8,15.1c2,1.8,2.9,2.6,2.9,2.6c1.7,1.5,1.9,4.3,0.4,6c0,0-0.4,0.4-1.9,2.2c-5.2,6-10.6,11.8-16,17.4
				c-2,2.1-3,3.1-3,3.1c-1.6,1.6-4.3,1.6-5.9,0c0,0-5.2-5.4-9.5-9.7c-3.9-3.9-9-9.1-9-9.1C255.1,388.4,254.6,386.1,255.6,385z"/>
			<path class="st0" d="M301.8,374c-6.7-6.1-17.7-15.5-17.7-15.5c-1.8-1.5-2-4.2-0.5-6c0,0,4.9-6,8.6-10.7c2.5-3.2,4.8-6.2,4.8-6.2
				c1.4-1.8,2.6-3.3,2.7-3.1c0,0,0,0,0.1,0.1c6.6,6.9,12.9,13.8,18.5,20.9c1.5,1.9,1.8,2.2,1.8,2.2c1.4,1.8,1.5,4.9,0.2,6.8
				c0,0-2.6,3.8-5.2,7.4c-2.3,3.2-4.7,6.2-4.7,6.2c-1.4,1.8-4,2-5.7,0.4C304.6,376.5,303.8,375.8,301.8,374z"/>
			<path class="st0" d="M296.1,321.7c0,0-7.9-7.8-13.5-13c-1.9-1.7-2.5-2.3-2.5-2.3c-1.7-1.5-1.8-4.2-0.2-5.8c0,0,0.4-0.5,2.1-2.2
				c5.8-6.1,13.3-15.1,13.3-15.1c1.5-1.8,3.2-2.8,3.7-2.2c0,0,0,0,0.5,0.5c1.4,1.4,1.4,1.4,1.4,1.4c1.5,1.6,3.2,3.4,3.8,4
				c0.6,0.6,1.5,1.6,2,2.2c0.6,0.6,1.9,2.1,3,3.3c1.1,1.2,3.2,3.6,4.6,5.2c0,0,0,0,1.3,1.5c0.2,0.3,0.2,0.3,0.2,0.3
				c0.2,0.3-0.6,2.1-1.9,4c0,0-5.4,8.1-9.7,14.1c-1.7,2.3-2.7,3.7-2.7,3.7C300.2,323.1,297.8,323.3,296.1,321.7z"/>
			<path class="st0" d="M313.6,289c-1.1-1.2-2.5-2.8-3.1-3.4c-0.6-0.6-1.5-1.6-2.1-2.2c-0.6-0.6-2.3-2.4-3.9-4c0,0,0,0-1.4-1.4
				c-0.6-0.7-0.6-0.7-0.6-0.7c-0.7-0.7-0.2-2.8,1.2-4.6c0,0,1.1-1.4,2.7-3.8c1.5-2.2,2.1-3.1,2.1-3.1c1.3-1.9,2.8-2.9,3.5-2.1
				c0,0,0,0,0.6,0.7c1.5,1.7,2.9,3.4,4.4,5.1c2.9,3.4,5.8,6.9,8.6,10.3c0.4,0.5,0.4,0.5,0.4,0.5c0.5,0.6,0,2.7-1.1,4.8l-3.8,6.8
				c-1.2,2-3.8,1.6-4.5,0.9C316.2,291.9,314.8,290.3,313.6,289z"/>
			<path class="st0" d="M306.3,263.2l-5.2,6.9c-1.4,1.8-3.8,2.1-5.2,0.7c0,0,0,0-1.4-1.2c-2.9-2.7-5.8-5.4-8.8-7.9
				c-1.5-1.3-3-2.5-4.4-3.8c-1.1-0.9-1.1-0.9-1.1-0.9c-1.2-1-2.1-1.8-2.1-1.8c0,0,1.3-1.4,3-3l7.9-8.2c1.6-1.7,4.1-1.7,5.7,0
				c0,0,2.4,2.6,5.2,5.7c1.4,1.6,2.9,3.1,4.3,4.8c1.4,1.6,2.9,3.3,4.4,4.9c0.1,0.2,0.1,0.2,0.1,0.2
				C308.6,259.7,307.7,261.4,306.3,263.2z"/>
			<path class="st0" d="M286.5,241.5c0,0-6.1,6.1-11.2,10.9c-0.1,0.1-0.1,0.1-0.1,0.1c-0.1,0.1-1-0.4-1.9-1.1c0,0,0,0-0.9-0.7
				c-1.5-1.1-2.9-2.3-4.4-3.4c-2.9-2.2-5.8-4.3-8.6-6.4c-3.6-2.6-7.1-5-7.1-5c-1.9-1.3-2-3.6-0.2-5c0,0,0.2-0.2,1.9-1.5
				c4.7-3.8,9.1-7.3,13-10.2c0.8-0.6,8.8,4.8,10.7,6.8c1.9,2,4,4.3,6.3,6.7c1.7,1.9,2.6,2.8,2.6,2.8
				C288.2,237.1,288.2,239.9,286.5,241.5z"/>
			<path class="st0" d="M257,244c2.7,2.1,5,4,5,4c1.8,1.5,6.2,5.1,7.4,6.1c1.2,0.9,0.7,3-1,4.5c0,0-7.1,6.4-12.4,11.2
				c-3,2.7-6,5.4-6,5.4c-1.7,1.5-4.6,1.6-6.4,0.1c0,0-2-1.7-4.6-3.8c-5.9-4.8-13.7-11.3-13.7-11.3c-1.8-1.5-3-2.9-2.7-3.2
				c0,0,0,0,0.2-0.2c2.7-2.7,5-4.8,5-4.8c1.7-1.6,4.5-4.1,6.2-5.7c0,0,2.2-2,4.9-4.3c2.5-2.1,4-3.5,4-3.5c1.8-1.5,4.1-2.1,5.1-1.3
				c0,0,0,0,1,0.7C251.6,239.9,254.3,241.9,257,244z"/>
			<path class="st0" d="M239.9,236.2c0,0-1.2,0.9-3.5,2.8c-2.7,2.2-5.5,4.5-8.3,6.9c-1.4,1.2-2.8,2.4-4.2,3.7
				c-1.4,1.2-2.8,2.5-4.2,3.8c-0.4,0.4-0.4,0.4-0.4,0.4c-0.4,0.4-2.2-0.5-3.9-2c0,0-8.8-7.7-13.9-12.6c-0.7-0.7-0.7-0.7-0.7-0.7
				c-0.8-0.8-1.1-1.7-0.9-2c0,0,0,0,0.3-0.3c2.2-2.3,4.3-4.4,6.2-6.4c2-2,14.4-11.5,16.3-10.2c0,0,2,1.3,5.3,3.5
				c4.1,2.7,8.6,5.9,13.5,9.4c0.6,0.4,0.6,0.4,0.6,0.4C242.7,233.3,241.7,234.8,239.9,236.2z"/>
			<path class="st0" d="M212.6,254.2c1.7,1.6,3,2.9,2.9,3c0,0,0,0-0.1,0.1c-1.4,1.3-2.8,2.7-4.2,4.1c-2.9,2.7-5.6,5.6-8.4,8.5
				c-1.4,1.4-2.8,2.9-4.1,4.4c-1.4,1.5-2.7,3-4.1,4.5c-0.7,0.9-0.7,0.9-0.7,0.9c-0.8,0.9-2.8,0.3-4.4-1.3c0,0-6.2-6.6-9.9-11.3
				c-1-1.2-1-1.2-1-1.2c-1-1.4-1-3.5,0-4.8c0,0,0,0,0.9-1.2c2.2-2.9,4.7-5.7,7-8.4c2.3-2.8,4.2-4.8,4.2-4.8c1.5-1.7,4.8-5.2,5.5-6
				c0.7-0.8,1.9-0.8,2.6,0c0,0,0,0,0.7,0.7C204.2,246.3,212.6,254.2,212.6,254.2z"/>
			<path class="st0" d="M187,281c1.5,1.7,2.5,3.5,2.1,3.9c-0.4,0.4-1.1,1.3-1.6,1.9c-0.5,0.7-1.8,2.3-2.9,3.6
				c-1.1,1.3-3,3.9-4.4,5.7c0,0,0,0-1.2,1.6c-0.7,1-0.7,1-0.7,1c-0.8,1.1-2.6,0.4-3.8-1.5c0,0-6.1-9.1-9.3-15.1
				c-0.4-0.7-0.4-0.7-0.4-0.7c-0.4-0.7,0-2.3,0.9-3.5c0,0,0,0,0.8-1.1c1-1.4,2-2.8,3-4.3c0.5-0.7,1-1.4,1.6-2.1
				c0.5-0.7,1.1-1.4,1.6-2.1c0.7-0.9,0.7-0.9,0.7-0.9c0.8-1,1.5-1.7,1.6-1.6c0.1,0.2,0.9,1.3,1.5,2.1c0,0,0,0,0.5,0.7
				C180.7,273.9,187,281,187,281z"/>
			<path class="st0" d="M173.6,303.1c0.2,0.4,0.2,0.4,0.2,0.4c0.3,0.4-0.2,1.8-1.1,3c0,0,0,0-0.8,1.2c-2.4,3.3-4.4,6.7-6.5,10.1
				c-1.1,1.7-2,3.4-3,5.1c-1,1.7-1,1.7-1,1.7c-1,1.8-2.7,4.9-3,5.5c-0.3,0.6-1.4-0.7-2.4-2.7c0,0-2.1-4.1-3.7-7.8
				c-2-4.6-3.6-8.9-3.6-8.9c-0.8-2.2-1-4.6-0.5-5.5c0,0,0,0,0.6-1.1c0.8-1.4,1.9-3.1,3-5c0.6-1,1.2-2,1.9-3c0.7-1.1,1.4-2.2,2.1-3.4
				c0.7-1.2,0.7-1.2,0.7-1.2c0.9-1.4,2.3-3.6,3.2-5c0,0,0,0,0.9-1.3c0.5-0.7,0.5-0.7,0.5-0.7c0.5-0.8,1-1.2,1.1-1c0,0,0,0,0.1,0.2
				C165.5,289.9,169.2,296.5,173.6,303.1z"/>
			<path class="st0" d="M162.6,332c0.6-1,1.9-3.4,3-5.2c0,0,0,0,1-1.6c1-1.6,1.9-3.3,3-4.9c1.1-1.6,2.1-3.3,3.2-4.9
				c0.5-0.8,0.5-0.8,0.5-0.8c0.6-0.9,1.5-2.2,1.9-2.9c0.5-0.7,1.5-2.1,1.7-2.4c0.2-0.3,1.5,0.9,2.9,2.8c0,0,4.6,6.4,8.4,11.3
				c1.9,2.4,3.2,4.1,3.2,4.1c1.5,1.8,1.5,4.7,0,6.5c0,0-8.8,10.8-13.7,18c-1.2,1.7-1.2,1.8-1.2,1.8c-1.3,1.9-2.8,2.9-3.4,2.1
				c0,0,0,0-0.5-0.7c-4.3-6.2-8.2-12.3-11.6-18.3c-0.2-0.3-0.2-0.3-0.2-0.3C160.7,336.1,162,333.1,162.6,332z"/>
			<path class="st0" d="M176.8,368.7c0,0,3.1,4.2,6.2,7.9c2.1,2.5,3.8,4.4,3.8,4.4c1.5,1.7,1.6,4.6,0.1,6.4c0,0-3.1,3.7-5.8,7.1
				c-4.5,5.6-9.5,13.1-9.5,13.1c-1.3,1.9-3.4,2.3-4.7,0.8c0,0,0,0-1.2-1.3c-1.8-2.1-3.6-4.2-5.2-6.3c-0.8-1-0.8-1-0.8-1
				c-0.9-1.1-1.5-2.1-1.5-2.2c0,0,0,0,0-0.1c2.5-6.7,5.7-13.8,9.6-21c2-3.6,4.4-7.4,4.4-7.4C173.3,367,175.4,366.9,176.8,368.7z"/>
			<path class="st0" d="M173.8,410.1c0,0,5.5-7.5,10.3-13.2c2.7-3.2,5.6-6.4,5.6-6.4c1.5-1.7,4.1-1.7,5.7-0.1c0,0,1.7,1.8,4,4.2
				c5.8,5.8,11.7,11.3,17.7,16.6c1.7,1.5,1.9,1.7,1.9,1.7c1.7,1.5,2.2,3.9,1,5.3c0,0,0,0-1.1,1.3c-5.2,6-10,11.8-14.3,17.2
				c-1.3,1.6-1.3,1.6-1.3,1.6c-1.4,1.8-3,2.7-3.7,2.1c0,0,0,0-0.6-0.5c-1.1-0.9-2.2-1.8-3.2-2.7c-4.3-3.7-8.5-7.6-12.6-11.6
				c-4-4-8.9-9.1-8.9-9.1C172.6,414.8,172.4,411.9,173.8,410.1z"/>
			<path class="st0" d="M205.4,440.2c0,0,0,0,1.4-1.6c4.5-5.2,9.6-10.7,14.9-16.6c1.1-1.2,1.1-1.2,1.1-1.2c1.3-1.4,3.8-1.3,5.6,0.2
				c0,0,3.3,2.7,6.5,5.4c5.3,4.4,12.3,9.8,12.3,9.8c1.8,1.4,2,3.9,0.3,5.6c0,0-5.2,5.2-8.8,9c-3.8,4-7.3,8.2-7.3,8.2
				c-1.5,1.8-3.2,2.9-3.9,2.5c0,0,0,0-0.6-0.4c-1.9-1.3-4-2.6-6-4c-2-1.4-4.1-2.9-6.2-4.4c-1-0.8-2.1-1.6-3.2-2.3
				c-1-0.8-2.1-1.6-3.2-2.4c-1.9-1.4-2.4-1.8-2.4-1.8C204.3,444.5,204,441.9,205.4,440.2z"/>
			<path class="st0" d="M237.9,422.8c-2.9-2.5-5.8-5-8.7-7.5c-0.2-0.2-0.2-0.2-0.2-0.2c-0.2-0.2,0.8-1.8,2.4-3.5
				c0,0,3.8-4.1,7.2-7.9c3.9-4.2,9-9.8,9-9.8c1.6-1.7,4.2-1.8,5.9-0.2c0,0,5.1,4.9,9,8.7c4.4,4.2,9.8,9.4,9.8,9.4
				c1.7,1.6,1.7,4.2,0,5.9c0,0-1.9,1.9-4.3,4.2c-5,4.8-11.5,11.1-11.5,11.1c-1.7,1.6-4.5,1.7-6.2,0.2
				C250.2,433.3,243.3,427.4,237.9,422.8z"/>
			<path class="st0" d="M259.6,435.8c0,0,6.5-5.8,11.5-10.5c2.5-2.3,4.6-4.3,4.6-4.3c1.7-1.6,3.5-2.4,4.1-1.9c0,0,0,0,0.5,0.5
				c5.7,5.5,11,10.7,15.8,15.6c1.9,2,2.6,2.7,2.6,2.7c1.6,1.7,1.5,4.3-0.2,5.9c0,0-0.5,0.5-2.4,2c-1,0.9-2,1.7-3,2.6
				c-1,0.8-2,1.6-3,2.5c-2,1.7-4,3.2-5.9,4.7c-1.8,1.4-2,1.6-2,1.6c-1.9,1.4-4.7,1.1-6.3-0.6c0,0-3.1-3.3-6.7-6.6
				c-3.9-3.7-9.6-8.6-9.6-8.6C257.8,439.9,257.8,437.3,259.6,435.8z"/>
			<path class="st0" d="M298.3,433.3c-4.6-5.2-9.7-10.6-15.2-16.3c-0.5-0.5-0.5-0.5-0.5-0.5c-0.5-0.6,0.4-2.3,2-4
				c0,0,1.1-1.1,3.2-3.2c5.5-5.6,11.1-11.5,16.3-17.5c1.5-1.8,1.8-2.1,1.8-2.1c1.5-1.8,4.1-1.9,5.7-0.4c0,0,3.2,3,6.1,5.9
				c5,5.1,11,11.8,11,11.8c1.5,1.7,1.5,4.6,0,6.3c0,0-4.6,5.3-8.4,9.4c-3.9,4.2-7.9,8.2-11.9,12.1c-1,1-2,1.9-3.1,2.9
				c-0.6,0.5-0.6,0.5-0.6,0.5c-0.6,0.6-2.4-0.4-3.9-2.1C300.8,436.1,300.2,435.3,298.3,433.3z"/>
			<path class="st0" d="M320.5,392.5c-2.9-3.1-6.3-6.5-6.3-6.5c-1.6-1.6-1.8-4.5-0.4-6.3c0,0,2.6-3.4,5.1-6.8
				c2.3-3.2,4.3-6.2,4.3-6.2c1.3-1.9,3.4-2,4.7-0.1c0,0,2.9,4.2,5.3,8c4.1,6.7,8.6,15.7,8.6,15.7c1,2.1,1.2,4.7,0.4,5.7
				c0,0,0,0-0.7,1c-1.6,2.2-3.2,4.3-4.9,6.5c-1.1,1.3-1.1,1.3-1.1,1.3c-1.2,1.5-3.4,1.2-4.8-0.6
				C330.9,404.4,325.4,397.6,320.5,392.5z"/>
			<path class="st0" d="M326.9,352.4c-0.9,1.5-2.7,1.4-3.9-0.3c0,0,0,0-1.1-1.5c-5.6-7.3-11.8-14.5-18.4-21.5
				c-0.3-0.3-0.3-0.3-0.3-0.3c-0.3-0.4,0.5-2.2,1.8-4.1c0,0,1.3-1.9,3.2-4.5c4-5.7,8.8-13.4,8.8-13.4c1.2-2,2.3-3.4,2.5-3.2
				c0,0,0,0,0.1,0.2c1.2,1.6,1.2,1.6,1.2,1.6c1.3,1.7,2.9,3.6,3.4,4.2c0.5,0.6,1.4,1.9,2.1,2.7c0,0,0,0,0.6,0.8
				c1.2,1.6,2.3,3.1,3.5,4.7c2.2,3.1,4.1,5.9,4.1,5.9c1.3,1.9,3.3,5.1,3.7,5.7c0.4,0.6,0.4,1.6,0.2,2.2c0,0,0,0-0.3,0.6
				c-2.9,6.1-6.3,12.4-10.2,18.8C326.9,352.4,326.9,352.4,326.9,352.4z"/>
			<path class="st0" d="M334.2,315c-1.1-1.6-2.3-3.2-3.4-4.8c-0.6-0.8-0.6-0.8-0.6-0.8c-0.6-0.9-1.6-2.2-2.1-2.8
				c-0.5-0.7-2-2.6-3.4-4.4c0,0,0,0-1.2-1.6c-0.5-0.7-0.5-0.7-0.5-0.7c-0.6-0.7-0.2-3,0.9-5l3.6-7c1-2.1,3-2.3,4.5-0.5
				c0,0,0.5,0.6,2,2.5c1.3,1.7,2.6,3.3,3.8,4.9c1.3,1.6,2.5,3.1,3.6,4.7c1.1,1.6,2.3,3.1,3.3,4.5c1,1.3,1,1.3,1,1.3
				c1,1.4,1.3,4.3,0.5,6.5c0,0-0.2,0.5-1,2.8c-1.3,3.5-2.7,7-2.7,7c-0.9,2.1-1.8,3.5-1.9,3.4c-0.1-0.1-1.1-1.8-2.4-3.8
				C338.2,321.2,336.4,318.3,334.2,315z"/>
			<path class="st0" d="M321,241.2c0.3-1.1,0.3-1.1,0.3-1.1c0.3-1.2,1.7-0.7,3,1.2c0,0,4.8,6.6,5.9,8.7c1.2,2.3,3.1,9,3.1,9
				c0.7,2.2,0.7,5.8-0.1,8l-2.1,5.5c-0.9,2.1-2.8,2.4-4.3,0.6l-3-3.7c-1.5-1.8-6.3-7.3-7.7-8.8c-1.4-1.5-1.6-4.5-0.5-6.5
				c0,0,0.8-1.4,1.9-3.9C318.9,247,320.1,244.1,321,241.2z"/>
			<path class="st0" d="M307.8,227.4l8.9,6.5c1.6,1.4,2.6,3.8,2.2,5.3c0,0,0,0-0.5,1.4c-0.9,2.6-2.1,5.2-3.5,7.9
				c-1.1,2-1.5,2.7-1.5,2.7c-1.1,1.9-3.2,2.1-4.7,0.5c0,0-2.7-2.9-5.4-5.6c-2.8-2.9-5.6-5.5-8.3-8.1c0,0,0,0,0,0
				c0,0,1.1-1.4,2.5-3.1l4.6-6.2C303.3,227,305.9,226.4,307.8,227.4z"/>
			<path class="st0" d="M273,214.6c0,0,2-1.5,4.2-3.1c0,0,0,0,0,0c0,0,1.9,0.4,4.1,1c0,0,7.2,1.8,9.4,2.9c2.2,1.1,8.1,5.7,8.1,5.7
				c1.8,1.4,3,3,2.9,3.2c-0.1,0.2-1.1,1.5-2.1,2.8c0,0,0,0-1.1,1.2c-2,2.5-3.7,4.4-3.7,4.4c-1.6,1.7-4.2,1.8-5.9,0.3
				c0,0-0.9-0.9-2.8-2.5c-2.6-2.2-4.9-4.3-7.1-6c-2.1-1.8-4-3.3-5.6-4.5C271.9,218.7,271.2,216,273,214.6z"/>
			<path class="st0" d="M192.9,223.3l16.3-8.6c2.2-0.7,5.2-0.5,6.6,0.4c0,0,0,0,1.5,1c0.5,0.3,0.5,0.3,0.5,0.3
				c0.6,0.4-1.2,2.2-2.6,3.1c-1.4,0.9-3,2-4.8,3.3c-1.8,1.3-3.9,2.9-6.1,4.6c-1.1,0.9-2.2,1.8-3.4,2.7c-1.2,1-2.3,2-3.5,3.1
				c-0.3,0.2-0.3,0.2-0.3,0.2c-0.3,0.3-1.7-0.7-2.1-1.2c-0.4-0.5-2.3-2.6-2.9-3.3c-0.6-0.7-1.2-1.5-1.5-1.9
				C190.3,226.8,191,224.7,192.9,223.3z"/>
			<path class="st0" d="M170.9,242.8l13.7-12.4c1.8-1.2,3.3-2.1,3.3-2.1c0,0,2.6,3.6,3.7,5.1c1.1,1.4,0.8,3.8-0.7,5.2
				c0,0,0,0-1.4,1.4c-1.2,1.2-2.3,2.4-3.5,3.6c-1.2,1.2-2.4,2.5-3.5,3.8c-2.3,2.6-4.6,5.3-6.7,8.1c-0.6,0.7-0.6,0.7-0.6,0.7
				c-0.6,0.8-2-0.1-3.1-2c0,0-1.1-1.8-2.2-4.4c-0.6-1.4-0.6-1.4-0.6-1.4C168.8,247,169.5,244.4,170.9,242.8z"/>
			<path class="st0" d="M159.6,264.6l4.4-12.7c1.1-2,2.3-2.8,2.7-1.6c0,0,0,0,0.4,1.1c1.1,2.8,2.2,4.9,2.2,4.9
				c1.1,2,2.2,4.2,2.3,4.3c0.1,0.2,0.2,0.3,0.2,0.3c0,0-1,1.4-2.2,3c0,0,0,0-1.1,1.5c-2.2,2.9-4.1,6-6,9c-0.3,0.4-0.3,0.4-0.3,0.4
				c-0.3,0.5-2.1-2.5-2.6-3.8c-0.5-1.2-0.9-2.3-0.9-2.3C158.8,268.7,159.2,266.8,159.6,264.6z"/>
			<path class="st0" d="M146.7,295.2c2.2-12.1,8.5-20.9,8.5-20.9c1-2.1,3.2,0,3.8,1.5c0.6,1.5,1,2.8,1,2.9c0,0,0,0-0.1,0.1
				c-0.8,1.5-1.6,2.9-2.4,4.3c-0.8,1.4-0.8,1.4-0.8,1.4c-0.8,1.5-2.1,3.9-2.8,5.4c0,0,0,0-0.6,1.3c-1.2,2.5-4.8,7.4-5.7,9.5
				C146.7,302.7,146.3,297.5,146.7,295.2z"/>
			<path class="st0" d="M148.3,353.3c-0.2,0.4-0.8-1.1-1.4-3.3c0,0-4.7-8.6-4.8-16.3c-0.1-8.1,4.7-15.1,4.7-15.1
				c0.4-2.3,1.2-2.4,2-0.2c0,0,0,0.1,0.8,2.2c1.8,4.6,4.5,10.7,4.5,10.7c1,2.1,1.3,4.7,0.8,5.7c0,0,0,0-0.4,1
				c-0.7,1.7-1.5,3.4-2.2,5c-0.7,1.7-1.5,3.3-2.1,4.9c-0.6,1.7-1.2,3.3-1.8,4.9C148.3,353.3,148.3,353.3,148.3,353.3z"/>
			<path class="st0" d="M149.1,367.5c-0.4-2.3-0.2-5.5,0.4-7.2c0,0,0,0,0.5-1.6c0.5-1.5,1.2-3,1.8-4.6c0.6-1.5,1.3-3.1,2-4.7
				c0.6-1.6,1.5-3.2,2.2-4.8c0.8-1.6,0.8-1.6,0.8-1.6c0.8-1.8,2.5-1.5,3.6,0.5c0,0,4.5,8.1,8.4,14c0.9,1.3,0.9,1.3,0.9,1.3
				c1,1.4,0.8,4.2-0.3,6.2c0,0-3,5.1-5.2,9.4c-3.5,6.9-7,16.2-7,16.2c-0.8,2.2-2.1,2.2-2.9,0L149.1,367.5z"/>
			<path class="st0" d="M155.4,423.6c-1.2-3.6-1.4-10.3-0.3-14.7c0.5-2.3,0.8-5.1,0.9-5.4c0.1-0.3,0.3-0.4,0.5-0.2c0,0,0,0,0.2,0.2
				c3,4,7,8.8,7,8.8c1.5,1.8,1.8,4.9,0.7,6.9l-2.6,5.1c-1,2.1-1.8,3.6-1.8,3.5C159.9,427.7,156.2,425.8,155.4,423.6z"/>
			<path class="st0" d="M190.9,454.5c-1.1,1.9-2.3,3.2-2.4,3.1c-0.1-0.1-1.8-0.8-3.9-1.5c0,0-8.9-3-15.1-9.5
				c-6.5-6.8-7.7-14.7-7.7-14.7c0,0,0,0,0,0c2-4.4,5.6-10.6,5.6-10.6c1.1-1.9,3.3-2.2,4.8-0.5c0,0,4.1,4.6,7.7,8.3
				c4,4,8.1,7.9,12.3,11.5c1.7,1.5,2,1.8,2,1.8c1.7,1.4,2.1,4.1,0.8,5.9c0,0-0.7,0.9-2,2.9C191.4,453.7,190.9,454.5,190.9,454.5z"/>
			<path class="st0" d="M224.9,467.9c0,0,0,0-0.8,1.2c-0.9,1.6-0.9,1.6-0.9,1.6c-0.8,1.6-2.1,2.6-2.4,2.4c-0.2-0.1-10.9-2.1-12.9-3
				c-3.4-1.5-13-7.4-13-7.4c-1.8-1.3-2.2-3.8-1-5.6c0,0,0.7-0.9,2.4-3.2c1.4-1.9,2.1-2.7,2.1-2.7c1.4-1.7,4-2,5.7-0.7
				c0,0,0.6,0.5,2.5,1.9c2.1,1.5,4.2,3.1,6.3,4.4c2.1,1.4,4.2,2.7,6.2,4c2,1.3,4,2.4,6,3.6c0.5,0.3,0.5,0.3,0.5,0.3
				C226.2,465,225.9,466.4,224.9,467.9z"/>
			<path class="st0" d="M248.4,475.6c0,0,0,0-0.6,0.3c-0.5,0.3-0.5,0.3-0.5,0.3c-0.4,0.2-7.2,1.8-9.4,1.6l-9.6-3.1
				c-2.1-0.6-1.5-4.9-0.4-6.4c1.2-1.5,3.4-2.1,3.8-1.8c0.5,0.3,3.5,1.8,4.5,2.3c1,0.5,0.4,0.8,2.3,1.7c0,0,0,0,1.6,0.7
				c3.2,1.3,4.5,1.8,4.5,1.8c2.1,0.8,4.6,1.7,4.8,1.7C249.7,474.8,249.2,475.2,248.4,475.6z"/>
			<path class="st0" d="M255,472c-0.7,0.3-1.8,0.3-2.5,0.1c0,0,0,0-0.7-0.3c-2.1-0.8-4.1-1.7-4.1-1.7c-1.9-0.9-4.7-2.2-6.3-3
				c0,0,0,0-1.6-0.8c-1.5-0.8-1.6-0.8-1.6-0.8c-1.8-1-4.2-2.3-4.5-2.5c-0.3-0.2,0.6-1.5,2-2.9c0,0,3.3-3.1,6.8-6.2
				c3.6-3.1,8.8-7.4,8.8-7.4c1.6-1.3,4.2-1.4,5.8-0.2c0,0,5.6,4.1,9.4,7c3.3,2.5,6.1,4.8,6.1,4.8c1.6,1.3,1.1,3.5,0.4,3.9
				c-0.7,0.4-2.6,1.6-4.4,2.7c0,0,0,0-1.5,0.9c-1.5,0.9-1.5,0.9-1.5,0.9c-1.5,0.9-4.3,2.4-6.1,3.3c0,0-1.8,1-3.9,1.9
				C255,472,255,472,255,472z"/>
			<path class="st0" d="M282.2,472.4l-14.9,4.6c-2.3,0.4-5.2-0.9-5.7-1.1c0,0,0,0-0.6-0.2c-0.6-0.2-0.6-0.2-0.6-0.2
				c-0.9-0.4-1.1-0.8-0.6-1c0,0,0,0,0.5-0.2c1.2-0.5,2.5-0.9,3.9-1.6c1.4-0.6,1.4-0.6,1.4-0.6c1.7-0.8,2.1-1.6,3.9-2.4
				c0,0,0,0,1.8-0.9c1.7-0.9,1.8-1,1.8-1c2-1.1,3.9-2.8,4.8-3.4c0.9-0.5,2.7,0.2,4,1.6C283.2,467.4,284.3,471.6,282.2,472.4z"/>
			<path class="st0" d="M311.8,458.3c0,0-7.7,6.3-10.8,7.6c-2.1,0.9-9.2,1.9-9.2,1.9c-2.1,0.8-6.4-2.2-7.7-3.7
				c-1.3-1.5-0.7-3.7,1.2-4.9c0,0,0,0,1.8-1.2c2-1.3,4.1-2.7,6.1-4.2c1-0.7,2.1-1.5,3.1-2.2c1-0.8,2.1-1.6,3.1-2.4
				c1.9-1.5,2.6-2,2.6-2c1.7-1.4,4.3-1.3,5.8,0.3c0,0,0,0,1.2,1.3c2.3,2.5,3.5,4,3.5,4C313.9,454.5,313.6,457,311.8,458.3z"/>
			<path class="st0" d="M340.7,429.3c0,0-6,12.2-9.5,15.1c-4.5,3.6-12.3,7.3-12.5,7.6c-0.2,0.2-2.9,0.2-4.2-1.7c0,0-1-1.5-3.1-4.1
				c-1.1-1.4-1.1-1.4-1.1-1.4c-1.4-1.7-1.1-4.2,0.6-5.6c0,0,0.2-0.2,1.8-1.7c4-3.7,8-7.6,11.9-11.6c3.5-3.8,7.6-8.5,7.6-8.5
				c1.4-1.7,3.7-1.6,5,0.2l3.7,5.3C342.3,424.7,342.1,427.6,340.7,429.3z"/>
			<path class="st0" d="M348.7,410.9c-0.4,1.6-3.4,5.8-3.4,5.8c-0.9,1.9-1.7,3.6-1.7,3.7c0,0.1-0.9-1.1-2.1-2.8
				c-1.1-1.8-2.3-3.5-2.3-3.5c-1.3-1.8-1.2-4.6,0.2-6.3c0,0,3.4-4.3,6.1-8c0.1-0.2,0.1-0.2,0.1-0.2c0.2-0.2,1,1.3,1.2,1.9
				C347.1,402.1,349.2,408.8,348.7,410.9z"/>
			<path class="st0" d="M351.2,368.3c-0.7,4.4-4.9,17.3-4.9,17.3c-0.6,2.2-1.9,2.3-2.9,0.2c0,0-3.4-7.4-6.7-13.1
				c-2.6-4.5-6.2-9.9-6.2-9.9c-1.3-1.9-1.3-5.1-0.1-7.1c0,0,0.2-0.3,1.3-2.3c3.6-6.3,7.6-15,7.6-15c1-2.1,2.1-3.2,2.6-2.4
				c0,0,0,0,0.4,0.7c0.9,1.6,1.7,3.1,2.6,4.7c0.8,1.5,1.7,3,2.4,4.6c0.8,1.5,1.5,3.1,2.2,4.6c0.3,0.6,0.3,0.6,0.3,0.6
				C350.1,351.7,351.6,366,351.2,368.3z"/>
			<path class="st0" d="M351.1,344.8c0,0,0,0-0.2-0.6c-0.7-1.6-1.5-3.2-2.3-4.8c-0.8-1.6-1.6-3.2-2.5-4.9c-0.8-1.7-1.8-3.2-2.7-4.9
				c0-0.1,0-0.1,0-0.1c0-0.1,0.6-1.9,1.4-4.1c0,0,2.1-5.6,3.4-10c0.5-1.7,0.5-1.7,0.5-1.7c0.5-1.8,2.1-1.6,2.5-1s3.7,12.9,3.6,15.2
				c-0.1,3.5-2.4,13.6-2.4,13.6C351.9,344,351.3,345.4,351.1,344.8z"/>
		</g>
		<path class="st0" d="M268.5,209.3c0,0-0.7-0.3-1.7-0.7c-0.1,0.1-0.1,0.2-0.2,0.3l-0.7,0.7l-1-0.1c-2.3-0.2-5-0.2-8.1-0.1
			c-10.7,0.3-23.4,2.2-30.9,3.4c-2,0.3-3.6,0.5-4.7,0.7c0.4,0.2,0.8,0.5,1.2,0.7c2.7,1.5,4.8,3.4,8.5,5.7c1.9,1.1,3.8,2.4,5.9,3.7
			c2.1,1.3,4.2,2.7,6.5,4.2c0.8,0.5,0.8,0.5,0.8,0.5c0.9,0.6,2.9,0.1,4.5-1.2c0,0,0.2-1.1,2-2.5c2.2-1.6,3.8-2.9,5.8-4.4
			c2-1.4,3.3-2.8,5.2-4c3.3-2.3,6-3.9,6-3.9C269.4,211.2,270.3,210.1,268.5,209.3z"/>
	</g>
	<g>
		<path class="st1" d="M239.1,109.7c0.9,1.3,1.8,2.7,2.6,4.1c0.2,0.3,0.4,0.6,0.6,0.9c0.9,1.3,1.7,2.7,2.6,4.1
			c0.3,0.5,0.7,1.1,1,1.6c0.8,1.3,1.6,2.6,2.4,3.9c0.3,0.5,0.6,1,0.9,1.4c0.7,1.1,1.3,2.1,2,3.2c0.2,0.4,0.5,0.8,0.7,1.1
			c0,0.1,1.7,5.2,1.8,5.3c2.9-4.1,5.9-8.3,9.1-12.4c2.8-26.8-2.6-66.5-14.3-102.6c-2.5,24.4,2.9,75.2-11.8,85.9
			c0.6,0.9,1.2,1.8,1.8,2.8C238.8,109.2,239,109.5,239.1,109.7z"/>
		<path class="st1" d="M292.1,151.6c6.5-4,13.1-7,19.7-8.9c0.7-11.3,24.4-26.8,44.3-35.3c-21.6,4.8-38.7,9.8-51,15.1
			C301,132.1,296.5,141.9,292.1,151.6z"/>
		<path class="st1" d="M272.4,167.3c0.4-0.4,0.9-0.9,1.3-1.3c0.3-0.3,0.6-0.6,0.9-0.8c2.3-2.2,4.7-4.3,7.2-6.3
			c6.1-13.1,12.4-26.9,18-40.1l0.5-1.1l0,0c8.9-21,16.3-41.6,17.1-54.3C281.3,125,247,147,235.9,168.9c-0.1,0.3-0.3,0.6-0.4,0.8
			c-0.5,0.9-0.9,1.8-1.3,2.7c-0.3,0.7-0.6,1.3-0.9,2c-0.1,0.3-0.3,0.6-0.4,0.9c-0.4,0.9-0.9,1.9-1.3,2.8c-0.1,0.1-0.1,0.2-0.2,0.4
			c-0.2,0.4-0.4,0.9-0.5,1.3c1.9,2.7,3.7,5.3,5.3,7.8c0,0,0,0.1,0.1,0.1c0.6,0.9,1.1,1.8,1.6,2.6c0.3,0.6,0.6,1.1,1,1.6
			c5.7-6.5,11.2-14.7,14.1-24.5l2.7-9.2l1.4,9.4c0.7,4.4,1.9,8.8,3.2,13.1c0.3-0.4,0.7-0.8,1-1.2C264.8,175,268.6,171,272.4,167.3z"
			/>
		<path class="st1" d="M218.4,120.3c7.7,11.8,14,24.6,16.8,36.7c3.8-6.8,8.2-13.8,13.1-21c-0.2-0.3-0.4-0.6-0.5-0.9
			c-0.5-0.8-1-1.6-1.5-2.5c-0.4-0.6-0.7-1.2-1.1-1.8c-0.5-0.8-1-1.6-1.5-2.4c-0.7-1.1-1.4-2.2-2.1-3.3c-0.5-0.9-1.1-1.7-1.6-2.6
			c-0.4-0.7-0.9-1.3-1.3-2c-0.6-0.9-1.1-1.7-1.7-2.6c-0.4-0.6-0.7-1.1-1.1-1.7c-0.9-1.3-1.7-2.6-2.6-4c-0.2-0.3-0.4-0.6-0.6-0.9
			c-3.2-4.9-6.4-9.8-9.7-14.7c-4.8-7.3-9.4-14.3-13.6-20.8c1,4.9,2.1,10,3.2,15.3C214.5,100.6,216.6,110.4,218.4,120.3z"/>
		<path class="st1" d="M311.1,149.5c-0.4,0.1-0.8,0.3-1.2,0.4c-0.7,0.2-1.3,0.5-2,0.7c-0.5,0.2-1.1,0.4-1.6,0.7
			c-0.5,0.2-1.1,0.5-1.6,0.7c-0.7,0.3-1.3,0.6-2,0.9c-0.4,0.2-0.8,0.4-1.2,0.6c-0.8,0.4-1.6,0.8-2.4,1.3c-0.2,0.1-0.4,0.2-0.7,0.4
			c-14.2,8-26.3,20.5-35.8,32.5c0.4,1.1,0.8,2.1,1.2,3.2c2,5.3,3.5,9.5,3.9,12.7c3.2,1,6.2,2.1,8.6,3.5
			c2.6-25.3,25.3-41.3,47.9-60.3c-3.6,0.3-7.2,1-10.6,2C312.7,149,311.9,149.3,311.1,149.5z"/>
		<path class="st1" d="M211.9,166.5c-0.5-0.6-1.1-1.1-1.6-1.7c-7.3-7.7-16.6-15.9-28-23.8l-1.2-0.9l0,0c-11.4-7.8-24.8-15-40.3-20.9
			c63.8,57,56.9,73.8,61.3,93.5c4.5-2,7.1-3.5,12.1-3.9c2.6-1.9,7.5-4,12.4-5.6c2.3-1.8,4.8-4,7.5-6.6c-4.4-8-11.4-18.4-21.6-29.5
			C212.3,167,212.1,166.7,211.9,166.5z"/>
		<path class="st1" d="M187.2,136.7c0.6,0.4,1.2,0.8,1.7,1.2c0.3,0.2,0.6,0.5,0.9,0.7c0.6,0.4,1.2,0.9,1.7,1.3
			c0.5,0.3,0.9,0.7,1.4,1c0.5,0.3,0.9,0.7,1.4,1c0.7,0.5,1.3,1,2,1.5c0.2,0.2,0.5,0.4,0.7,0.6c9.3,7.5,16.8,14.9,22.7,21.6
			c1.8,2,3.5,4,5.1,6.1c0.1,0.1,0.2,0.3,0.3,0.4c0.3,0.4,0.6,0.8,0.9,1.1c0.1,0.2,0.3,0.3,0.4,0.5c0.1-0.2,0.2-0.4,0.3-0.6
			c0.4-0.8,0.8-1.7,1.2-2.6c0.3-0.7,0.7-1.4,1-2.1c0.2-0.4,0.4-0.8,0.6-1.2c0.2-0.5,0.4-0.9,0.7-1.3c0-0.3,0-0.5-0.1-0.8
			c0-0.4-0.1-0.8-0.1-1.2c-0.1-0.5-0.1-1-0.2-1.5c0-0.2-0.1-0.5-0.1-0.7c-2-11.3-7.9-24.7-16.9-38.4l-0.4-0.5l0-0.1
			c-11.3-8.8-45.1-45.9-55.2-53.2C160.7,84.6,200.3,120.2,187.2,136.7z"/>
		<path class="st1" d="M230.5,207.2c6.5-1,16.3-2.4,24.7-2.6c2.2-0.1,4.1-0.1,5.9,0c0.1-1.9-1.8-7-3.2-10.8c-1.5-4.1-3.3-9-4.6-14
			C247.4,193.2,236.7,202.3,230.5,207.2z"/>
	</g>
</g>
</svg>
