<svg xmlns="http://www.w3.org/2000/svg" id="Layer_1" x="0" y="0" version="1.1" viewBox="0 0 500 500" xml:space="preserve">
    <path fill="#fcc61a" d="M338.3 268.4s6.4 10.9 7.6 14.6c1.3 4 2.1 16.4 2.1 16.4.3 2.3-.4 2.6-1.7.6 0 0-.4-.6-1.8-2.8-1-1.7-2.2-3.3-3.3-5-1.2-1.7-2.4-3.4-3.6-5.2-1.2-1.8-2.5-3.5-3.9-5.2l-.7-1c-.8-1.1-1.5-2-1.5-2s.7-1.8 1.5-3.9l2.1-6.3c.7-2.1 2.2-2.2 3.2-.2zm-68 29.2s-5.3-4.6-9.5-8.2c-3.3-2.8-6.8-5.7-6.8-5.7-1.8-1.5-1.9-4-.2-5.5 0 0 2.6-2.4 5.3-5 5.4-5 12.5-11.8 12.5-11.8 1.7-1.6 4.1-2 5.3-.9l1.2 1c1.4 1.3 2.8 2.6 4.3 3.9 2.9 2.6 5.7 5.3 8.6 8l1.4 1.3c1.5 1.5 1.5 4.1-.1 5.9 0 0-7.9 8.7-13.7 14.7-1.7 1.7-2.2 2.3-2.2 2.3-1.6 1.5-4.4 1.6-6.1 0zm8.8 14.9c5.8 5.3 13.9 13.3 13.9 13.3 1.6 1.6 1.8 4.4.4 6.3l-5.2 6.6c-3.7 4.6-8.6 10.6-8.6 10.6-1.5 1.8-4.1 2-5.9.6 0 0-9.1-7.5-15.4-12.5-2.9-2.3-5.3-4.2-5.3-4.2-1.8-1.4-1.9-3.9-.3-5.5 0 0 5.5-5.3 9.6-9.4 3.7-3.6 8-8 8-8 1.6-1.6 4.4-1.7 6.1-.2.1 0 .8.7 2.7 2.4zm-21.7-19.2c4.1 3.5 9.2 8 9.2 8 1.7 1.5 1.8 4.1.1 5.7 0 0-4.2 4.1-7.9 7.6-4.3 4.2-10.2 9.7-10.2 9.7-1.7 1.6-4.5 1.7-6.3.3 0 0-3.3-2.7-6.6-5.3-4.6-3.7-10.3-8.4-10.3-8.4-1.8-1.5-1.9-4-.2-5.6 0 0 8-7.9 13.6-13.1 2.8-2.6 5.2-4.9 5.2-4.9 1.7-1.6 4.5-1.6 6.3-.1 0 0 3.7 3.1 7.1 6.1zm-18.1 39.9l-1.3 1.2-15.3 14.8c-1.7 1.6-4.3 1.5-5.9-.1 0 0-4.3-4.6-7.8-8.5-2.9-3.2-5.7-6.4-5.7-6.4-1.5-1.7-1.5-4.5.1-6.3 0 0 8.7-9.5 14.8-15.6l.2-.2c.2-.2 1.8.9 3.5 2.4 0 0 5.8 5 10.5 8.8 3.1 2.5 6.1 4.9 6.1 4.9 1.9 1.4 2.2 3.7.8 5zm.9-49.2s-2.2 2-4.9 4.5c-5.7 5.3-14.1 13.5-14.1 13.5-1.7 1.6-4.2 1.9-5.7.7l-1.3-1.1c-6.5-5.6-15.2-13.7-15.2-13.7-1.7-1.6-2.4-3.7-1.5-4.7l.8-.9c1.3-1.5 2.7-3 4-4.5 1.3-1.5 2.7-3 4-4.4 2.8-2.9 5.4-5.7 8.2-8.5 1.4-1.4 2.7-2.8 4.1-4.1l.2-.1c.2-.2 1.7 1 3.5 2.5 0 0 7.9 7 13.8 12 2.4 2 4.1 3.5 4.1 3.5 1.7 1.3 1.7 3.8 0 5.3zm-29 21l1.2 1.1c1.3 1.2 2.3 2.2 2.2 2.3l-.1.1c-5.9 6-14.4 15.4-14.4 15.4-1.5 1.7-4 1.7-5.5-.1 0 0-1-1.2-2.7-3.3-4.2-5.2-9.4-12-9.4-12-1.4-1.8-1.6-4.6-.4-6.2l1.1-1.4 1.2-1.6c1.3-1.8 3.3-4.2 4.3-5.5 1-1.3 2.3-2.9 2.9-3.5.5-.6 1.2-1.4 1.4-1.7.2-.3 1.8.8 3.4 2.4 0-.1 8.5 8.4 14.8 14zm-11.1 32.9s2.5 3 5.3 6c3.5 4 7.9 8.7 7.9 8.7 1.6 1.7 1.5 4.4-.1 6.1 0 0-9.4 9.6-15.2 15.8-1.7 1.9-2.3 2.5-2.3 2.5-1.5 1.7-4.1 1.7-5.6 0 0 0-1.3-1.4-3.3-3.8-3.4-4.1-7.2-8.9-7.2-8.9-1.4-1.8-1.5-4.9-.2-6.8 0 0 .6-.8 2.1-3 2.6-3.6 5.4-7.2 8.3-10.8 2.5-3 4.9-5.9 4.9-5.9 1.5-1.7 3.9-1.7 5.4.1zm-1.3 42.5s.7-.8 2.6-2.7c5.8-6.1 15.2-15.3 15.2-15.3 1.6-1.6 4.3-1.6 5.9.1 0 0 .1.1 1.6 1.7 6.4 6.6 12.9 13.2 19.3 19.6l1.2 1.2c1.3 1.3 1.1 3.7-.4 5.5 0 0-5.1 5.8-8.9 10.2-3.4 3.8-7.1 8.1-7.1 8.1-1.5 1.7-4.2 1.9-5.9.4 0 0-.1-.1-1.8-1.6-5.9-5.3-11.7-10.8-17.3-16.6-2.4-2.4-4.2-4.3-4.2-4.3-1.7-1.8-1.8-4.6-.2-6.3zm29-19.8c-1.5-1.6-1.6-1.7-1.6-1.7-1.6-1.7-1.5-4.3.1-6 0 0 9.2-8.8 15.4-14.7l1.4-1.4c1.6-1.5 4.3-1.5 6.1-.1 0 0 2.8 2.2 5.8 4.7 6.3 5 15.3 12.3 15.3 12.3 1.8 1.4 2.4 3.7 1.3 4.9l-1 1.1c-5.9 7-12 14-18 20.8l-.9 1c-.9 1.1-2.7.9-3.8-.3l-1.1-1.1c-6.2-6.3-12.6-12.9-19-19.5zm27.8 24.4l.9-1c6-6.8 12.1-13.7 18.2-20.8l1-1.2c1.1-1.3 3.4-1.2 5.2.3 0 0 11.1 9.2 17.8 15.1 2 1.8 2.9 2.6 2.9 2.6 1.7 1.5 1.9 4.3.4 6 0 0-.4.4-1.9 2.2-5.2 6-10.6 11.8-16 17.4-2 2.1-3 3.1-3 3.1-1.6 1.6-4.3 1.6-5.9 0 0 0-5.2-5.4-9.5-9.7-3.9-3.9-9-9.1-9-9.1-1.6-1.5-2.1-3.8-1.1-4.9zm46.2-11c-6.7-6.1-17.7-15.5-17.7-15.5-1.8-1.5-2-4.2-.5-6 0 0 4.9-6 8.6-10.7 2.5-3.2 4.8-6.2 4.8-6.2 1.4-1.8 2.6-3.3 2.7-3.1l.1.1c6.6 6.9 12.9 13.8 18.5 20.9 1.5 1.9 1.8 2.2 1.8 2.2 1.4 1.8 1.5 4.9.2 6.8 0 0-2.6 3.8-5.2 7.4-2.3 3.2-4.7 6.2-4.7 6.2-1.4 1.8-4 2-5.7.4-.1 0-.9-.7-2.9-2.5zm-5.7-52.3s-7.9-7.8-13.5-13c-1.9-1.7-2.5-2.3-2.5-2.3-1.7-1.5-1.8-4.2-.2-5.8 0 0 .4-.5 2.1-2.2 5.8-6.1 13.3-15.1 13.3-15.1 1.5-1.8 3.2-2.8 3.7-2.2l.5.5 1.4 1.4c1.5 1.6 3.2 3.4 3.8 4 .6.6 1.5 1.6 2 2.2.6.6 1.9 2.1 3 3.3 1.1 1.2 3.2 3.6 4.6 5.2l1.3 1.5.2.3c.2.3-.6 2.1-1.9 4 0 0-5.4 8.1-9.7 14.1-1.7 2.3-2.7 3.7-2.7 3.7-1.3 1.8-3.7 2-5.4.4zm17.5-32.7c-1.1-1.2-2.5-2.8-3.1-3.4-.6-.6-1.5-1.6-2.1-2.2-.6-.6-2.3-2.4-3.9-4l-1.4-1.4-.6-.7c-.7-.7-.2-2.8 1.2-4.6 0 0 1.1-1.4 2.7-3.8 1.5-2.2 2.1-3.1 2.1-3.1 1.3-1.9 2.8-2.9 3.5-2.1l.6.7c1.5 1.7 2.9 3.4 4.4 5.1 2.9 3.4 5.8 6.9 8.6 10.3l.4.5c.5.6 0 2.7-1.1 4.8l-3.8 6.8c-1.2 2-3.8 1.6-4.5.9-.4-.9-1.8-2.5-3-3.8zm-7.3-25.8l-5.2 6.9c-1.4 1.8-3.8 2.1-5.2.7l-1.4-1.2c-2.9-2.7-5.8-5.4-8.8-7.9-1.5-1.3-3-2.5-4.4-3.8l-1.1-.9c-1.2-1-2.1-1.8-2.1-1.8s1.3-1.4 3-3l7.9-8.2c1.6-1.7 4.1-1.7 5.7 0 0 0 2.4 2.6 5.2 5.7 1.4 1.6 2.9 3.1 4.3 4.8 1.4 1.6 2.9 3.3 4.4 4.9l.1.2c-.1.1-1 1.8-2.4 3.6zm-19.8-21.7s-6.1 6.1-11.2 10.9l-.1.1c-.1.1-1-.4-1.9-1.1l-.9-.7c-1.5-1.1-2.9-2.3-4.4-3.4-2.9-2.2-5.8-4.3-8.6-6.4-3.6-2.6-7.1-5-7.1-5-1.9-1.3-2-3.6-.2-5 0 0 .2-.2 1.9-1.5 4.7-3.8 9.1-7.3 13-10.2.8-.6 8.8 4.8 10.7 6.8 1.9 2 4 4.3 6.3 6.7 1.7 1.9 2.6 2.8 2.6 2.8 1.6 1.6 1.6 4.4-.1 6zM257 244c2.7 2.1 5 4 5 4 1.8 1.5 6.2 5.1 7.4 6.1 1.2.9.7 3-1 4.5 0 0-7.1 6.4-12.4 11.2l-6 5.4c-1.7 1.5-4.6 1.6-6.4.1 0 0-2-1.7-4.6-3.8-5.9-4.8-13.7-11.3-13.7-11.3-1.8-1.5-3-2.9-2.7-3.2l.2-.2c2.7-2.7 5-4.8 5-4.8 1.7-1.6 4.5-4.1 6.2-5.7 0 0 2.2-2 4.9-4.3 2.5-2.1 4-3.5 4-3.5 1.8-1.5 4.1-2.1 5.1-1.3l1 .7c2.6 2 5.3 4 8 6.1zm-17.1-7.8s-1.2.9-3.5 2.8c-2.7 2.2-5.5 4.5-8.3 6.9-1.4 1.2-2.8 2.4-4.2 3.7-1.4 1.2-2.8 2.5-4.2 3.8l-.4.4c-.4.4-2.2-.5-3.9-2 0 0-8.8-7.7-13.9-12.6l-.7-.7c-.8-.8-1.1-1.7-.9-2l.3-.3c2.2-2.3 4.3-4.4 6.2-6.4 2-2 14.4-11.5 16.3-10.2 0 0 2 1.3 5.3 3.5 4.1 2.7 8.6 5.9 13.5 9.4l.6.4c.6.4-.4 1.9-2.2 3.3zm-27.3 18c1.7 1.6 3 2.9 2.9 3l-.1.1c-1.4 1.3-2.8 2.7-4.2 4.1-2.9 2.7-5.6 5.6-8.4 8.5-1.4 1.4-2.8 2.9-4.1 4.4-1.4 1.5-2.7 3-4.1 4.5l-.7.9c-.8.9-2.8.3-4.4-1.3 0 0-6.2-6.6-9.9-11.3l-1-1.2c-1-1.4-1-3.5 0-4.8l.9-1.2c2.2-2.9 4.7-5.7 7-8.4 2.3-2.8 4.2-4.8 4.2-4.8 1.5-1.7 4.8-5.2 5.5-6 .7-.8 1.9-.8 2.6 0l.7.7c4.7 4.9 13.1 12.8 13.1 12.8zM187 281c1.5 1.7 2.5 3.5 2.1 3.9-.4.4-1.1 1.3-1.6 1.9-.5.7-1.8 2.3-2.9 3.6-1.1 1.3-3 3.9-4.4 5.7l-1.2 1.6-.7 1c-.8 1.1-2.6.4-3.8-1.5 0 0-6.1-9.1-9.3-15.1l-.4-.7c-.4-.7 0-2.3.9-3.5l.8-1.1c1-1.4 2-2.8 3-4.3.5-.7 1-1.4 1.6-2.1.5-.7 1.1-1.4 1.6-2.1l.7-.9c.8-1 1.5-1.7 1.6-1.6.1.2.9 1.3 1.5 2.1l.5.7c3.7 5.3 10 12.4 10 12.4zm-13.4 22.1l.2.4c.3.4-.2 1.8-1.1 3l-.8 1.2c-2.4 3.3-4.4 6.7-6.5 10.1-1.1 1.7-2 3.4-3 5.1l-1 1.7c-1 1.8-2.7 4.9-3 5.5-.3.6-1.4-.7-2.4-2.7 0 0-2.1-4.1-3.7-7.8-2-4.6-3.6-8.9-3.6-8.9-.8-2.2-1-4.6-.5-5.5l.6-1.1c.8-1.4 1.9-3.1 3-5 .6-1 1.2-2 1.9-3 .7-1.1 1.4-2.2 2.1-3.4l.7-1.2c.9-1.4 2.3-3.6 3.2-5l.9-1.3.5-.7c.5-.8 1-1.2 1.1-1l.1.2c3.2 6.2 6.9 12.8 11.3 19.4zm-11 28.9c.6-1 1.9-3.4 3-5.2l1-1.6c1-1.6 1.9-3.3 3-4.9 1.1-1.6 2.1-3.3 3.2-4.9l.5-.8c.6-.9 1.5-2.2 1.9-2.9.5-.7 1.5-2.1 1.7-2.4.2-.3 1.5.9 2.9 2.8 0 0 4.6 6.4 8.4 11.3 1.9 2.4 3.2 4.1 3.2 4.1 1.5 1.8 1.5 4.7 0 6.5 0 0-8.8 10.8-13.7 18-1.2 1.7-1.2 1.8-1.2 1.8-1.3 1.9-2.8 2.9-3.4 2.1l-.5-.7c-4.3-6.2-8.2-12.3-11.6-18.3l-.2-.3c-.1-.5 1.2-3.5 1.8-4.6zm14.2 36.7s3.1 4.2 6.2 7.9c2.1 2.5 3.8 4.4 3.8 4.4 1.5 1.7 1.6 4.6.1 6.4 0 0-3.1 3.7-5.8 7.1-4.5 5.6-9.5 13.1-9.5 13.1-1.3 1.9-3.4 2.3-4.7.8l-1.2-1.3c-1.8-2.1-3.6-4.2-5.2-6.3l-.8-1c-.9-1.1-1.5-2.1-1.5-2.2v-.1c2.5-6.7 5.7-13.8 9.6-21 2-3.6 4.4-7.4 4.4-7.4 1.1-2.1 3.2-2.2 4.6-.4zm-3 41.4s5.5-7.5 10.3-13.2c2.7-3.2 5.6-6.4 5.6-6.4 1.5-1.7 4.1-1.7 5.7-.1 0 0 1.7 1.8 4 4.2 5.8 5.8 11.7 11.3 17.7 16.6 1.7 1.5 1.9 1.7 1.9 1.7 1.7 1.5 2.2 3.9 1 5.3l-1.1 1.3c-5.2 6-10 11.8-14.3 17.2l-1.3 1.6c-1.4 1.8-3 2.7-3.7 2.1l-.6-.5c-1.1-.9-2.2-1.8-3.2-2.7-4.3-3.7-8.5-7.6-12.6-11.6-4-4-8.9-9.1-8.9-9.1-1.7-1.7-1.9-4.6-.5-6.4zm31.6 30.1l1.4-1.6c4.5-5.2 9.6-10.7 14.9-16.6l1.1-1.2c1.3-1.4 3.8-1.3 5.6.2 0 0 3.3 2.7 6.5 5.4 5.3 4.4 12.3 9.8 12.3 9.8 1.8 1.4 2 3.9.3 5.6 0 0-5.2 5.2-8.8 9-3.8 4-7.3 8.2-7.3 8.2-1.5 1.8-3.2 2.9-3.9 2.5l-.6-.4c-1.9-1.3-4-2.6-6-4s-4.1-2.9-6.2-4.4c-1-.8-2.1-1.6-3.2-2.3-1-.8-2.1-1.6-3.2-2.4-1.9-1.4-2.4-1.8-2.4-1.8-1.6-1.7-1.9-4.3-.5-6zm32.5-17.4l-8.7-7.5-.2-.2c-.2-.2.8-1.8 2.4-3.5 0 0 3.8-4.1 7.2-7.9 3.9-4.2 9-9.8 9-9.8 1.6-1.7 4.2-1.8 5.9-.2 0 0 5.1 4.9 9 8.7 4.4 4.2 9.8 9.4 9.8 9.4 1.7 1.6 1.7 4.2 0 5.9 0 0-1.9 1.9-4.3 4.2-5 4.8-11.5 11.1-11.5 11.1-1.7 1.6-4.5 1.7-6.2.2-.1.1-7-5.8-12.4-10.4zm21.7 13s6.5-5.8 11.5-10.5c2.5-2.3 4.6-4.3 4.6-4.3 1.7-1.6 3.5-2.4 4.1-1.9l.5.5c5.7 5.5 11 10.7 15.8 15.6 1.9 2 2.6 2.7 2.6 2.7 1.6 1.7 1.5 4.3-.2 5.9 0 0-.5.5-2.4 2-1 .9-2 1.7-3 2.6-1 .8-2 1.6-3 2.5-2 1.7-4 3.2-5.9 4.7-1.8 1.4-2 1.6-2 1.6-1.9 1.4-4.7 1.1-6.3-.6 0 0-3.1-3.3-6.7-6.6-3.9-3.7-9.6-8.6-9.6-8.6-1.8-1.5-1.8-4.1 0-5.6zm38.7-2.5c-4.6-5.2-9.7-10.6-15.2-16.3l-.5-.5c-.5-.6.4-2.3 2-4l3.2-3.2c5.5-5.6 11.1-11.5 16.3-17.5 1.5-1.8 1.8-2.1 1.8-2.1 1.5-1.8 4.1-1.9 5.7-.4 0 0 3.2 3 6.1 5.9 5 5.1 11 11.8 11 11.8 1.5 1.7 1.5 4.6 0 6.3 0 0-4.6 5.3-8.4 9.4-3.9 4.2-7.9 8.2-11.9 12.1-1 1-2 1.9-3.1 2.9l-.6.5c-.6.6-2.4-.4-3.9-2.1 0 0-.6-.8-2.5-2.8zm22.2-40.8c-2.9-3.1-6.3-6.5-6.3-6.5-1.6-1.6-1.8-4.5-.4-6.3 0 0 2.6-3.4 5.1-6.8 2.3-3.2 4.3-6.2 4.3-6.2 1.3-1.9 3.4-2 4.7-.1 0 0 2.9 4.2 5.3 8 4.1 6.7 8.6 15.7 8.6 15.7 1 2.1 1.2 4.7.4 5.7l-.7 1c-1.6 2.2-3.2 4.3-4.9 6.5l-1.1 1.3c-1.2 1.5-3.4 1.2-4.8-.6.2.2-5.3-6.6-10.2-11.7zm6.4-40.1c-.9 1.5-2.7 1.4-3.9-.3l-1.1-1.5c-5.6-7.3-11.8-14.5-18.4-21.5l-.3-.3c-.3-.4.5-2.2 1.8-4.1 0 0 1.3-1.9 3.2-4.5 4-5.7 8.8-13.4 8.8-13.4 1.2-2 2.3-3.4 2.5-3.2l.1.2 1.2 1.6c1.3 1.7 2.9 3.6 3.4 4.2.5.6 1.4 1.9 2.1 2.7l.6.8c1.2 1.6 2.3 3.1 3.5 4.7 2.2 3.1 4.1 5.9 4.1 5.9 1.3 1.9 3.3 5.1 3.7 5.7.4.6.4 1.6.2 2.2l-.3.6c-2.9 6.1-6.3 12.4-10.2 18.8l-1 1.4zm7.3-37.4c-1.1-1.6-2.3-3.2-3.4-4.8l-.6-.8c-.6-.9-1.6-2.2-2.1-2.8-.5-.7-2-2.6-3.4-4.4l-1.2-1.6-.5-.7c-.6-.7-.2-3 .9-5l3.6-7c1-2.1 3-2.3 4.5-.5 0 0 .5.6 2 2.5 1.3 1.7 2.6 3.3 3.8 4.9 1.3 1.6 2.5 3.1 3.6 4.7s2.3 3.1 3.3 4.5l1 1.3c1 1.4 1.3 4.3.5 6.5 0 0-.2.5-1 2.8-1.3 3.5-2.7 7-2.7 7-.9 2.1-1.8 3.5-1.9 3.4-.1-.1-1.1-1.8-2.4-3.8 0 0-1.8-2.9-4-6.2zM321 241.2l.3-1.1c.3-1.2 1.7-.7 3 1.2 0 0 4.8 6.6 5.9 8.7 1.2 2.3 3.1 9 3.1 9 .7 2.2.7 5.8-.1 8l-2.1 5.5c-.9 2.1-2.8 2.4-4.3.6l-3-3.7c-1.5-1.8-6.3-7.3-7.7-8.8-1.4-1.5-1.6-4.5-.5-6.5 0 0 .8-1.4 1.9-3.9 1.4-3.2 2.6-6.1 3.5-9zm-13.2-13.8l8.9 6.5c1.6 1.4 2.6 3.8 2.2 5.3l-.5 1.4c-.9 2.6-2.1 5.2-3.5 7.9-1.1 2-1.5 2.7-1.5 2.7-1.1 1.9-3.2 2.1-4.7.5 0 0-2.7-2.9-5.4-5.6-2.8-2.9-5.6-5.5-8.3-8.1 0 0 1.1-1.4 2.5-3.1l4.6-6.2c1.2-1.7 3.8-2.3 5.7-1.3zM273 214.6s2-1.5 4.2-3.1c0 0 1.9.4 4.1 1 0 0 7.2 1.8 9.4 2.9 2.2 1.1 8.1 5.7 8.1 5.7 1.8 1.4 3 3 2.9 3.2-.1.2-1.1 1.5-2.1 2.8l-1.1 1.2c-2 2.5-3.7 4.4-3.7 4.4-1.6 1.7-4.2 1.8-5.9.3 0 0-.9-.9-2.8-2.5-2.6-2.2-4.9-4.3-7.1-6-2.1-1.8-4-3.3-5.6-4.5-1.5-1.3-2.2-4-.4-5.4zm-80.1 8.7l16.3-8.6c2.2-.7 5.2-.5 6.6.4l1.5 1 .5.3c.6.4-1.2 2.2-2.6 3.1-1.4.9-3 2-4.8 3.3-1.8 1.3-3.9 2.9-6.1 4.6-1.1.9-2.2 1.8-3.4 2.7-1.2 1-2.3 2-3.5 3.1l-.3.2c-.3.3-1.7-.7-2.1-1.2-.4-.5-2.3-2.6-2.9-3.3-.6-.7-1.2-1.5-1.5-1.9-.3-.2.4-2.3 2.3-3.7zm-22 19.5l13.7-12.4c1.8-1.2 3.3-2.1 3.3-2.1s2.6 3.6 3.7 5.1c1.1 1.4.8 3.8-.7 5.2l-1.4 1.4c-1.2 1.2-2.3 2.4-3.5 3.6-1.2 1.2-2.4 2.5-3.5 3.8-2.3 2.6-4.6 5.3-6.7 8.1l-.6.7c-.6.8-2-.1-3.1-2 0 0-1.1-1.8-2.2-4.4l-.6-1.4c-.5-1.4.2-4 1.6-5.6zm-11.3 21.8l4.4-12.7c1.1-2 2.3-2.8 2.7-1.6l.4 1.1c1.1 2.8 2.2 4.9 2.2 4.9 1.1 2 2.2 4.2 2.3 4.3.1.2.2.3.2.3s-1 1.4-2.2 3l-1.1 1.5c-2.2 2.9-4.1 6-6 9l-.3.4c-.3.5-2.1-2.5-2.6-3.8-.5-1.2-.9-2.3-.9-2.3.1 0 .5-1.9.9-4.1zm-12.9 30.6c2.2-12.1 8.5-20.9 8.5-20.9 1-2.1 3.2 0 3.8 1.5.6 1.5 1 2.8 1 2.9l-.1.1c-.8 1.5-1.6 2.9-2.4 4.3l-.8 1.4c-.8 1.5-2.1 3.9-2.8 5.4l-.6 1.3c-1.2 2.5-4.8 7.4-5.7 9.5-.9 2-1.3-3.2-.9-5.5zm1.6 58.1c-.2.4-.8-1.1-1.4-3.3 0 0-4.7-8.6-4.8-16.3-.1-8.1 4.7-15.1 4.7-15.1.4-2.3 1.2-2.4 2-.2 0 0 0 .1.8 2.2 1.8 4.6 4.5 10.7 4.5 10.7 1 2.1 1.3 4.7.8 5.7l-.4 1c-.7 1.7-1.5 3.4-2.2 5-.7 1.7-1.5 3.3-2.1 4.9-.6 1.7-1.2 3.3-1.8 4.9l-.1.5zm.8 14.2c-.4-2.3-.2-5.5.4-7.2l.5-1.6c.5-1.5 1.2-3 1.8-4.6.6-1.5 1.3-3.1 2-4.7.6-1.6 1.5-3.2 2.2-4.8l.8-1.6c.8-1.8 2.5-1.5 3.6.5 0 0 4.5 8.1 8.4 14l.9 1.3c1 1.4.8 4.2-.3 6.2 0 0-3 5.1-5.2 9.4-3.5 6.9-7 16.2-7 16.2-.8 2.2-2.1 2.2-2.9 0l-5.2-23.1zm6.3 56.1c-1.2-3.6-1.4-10.3-.3-14.7.5-2.3.8-5.1.9-5.4.1-.3.3-.4.5-.2l.2.2c3 4 7 8.8 7 8.8 1.5 1.8 1.8 4.9.7 6.9l-2.6 5.1c-1 2.1-1.8 3.6-1.8 3.5-.1-.1-3.8-2-4.6-4.2zm35.5 30.9c-1.1 1.9-2.3 3.2-2.4 3.1-.1-.1-1.8-.8-3.9-1.5 0 0-8.9-3-15.1-9.5-6.5-6.8-7.7-14.7-7.7-14.7 2-4.4 5.6-10.6 5.6-10.6 1.1-1.9 3.3-2.2 4.8-.5 0 0 4.1 4.6 7.7 8.3 4 4 8.1 7.9 12.3 11.5 1.7 1.5 2 1.8 2 1.8 1.7 1.4 2.1 4.1.8 5.9 0 0-.7.9-2 2.9-1.6 2.5-2.1 3.3-2.1 3.3zm34 13.4l-.8 1.2-.9 1.6c-.8 1.6-2.1 2.6-2.4 2.4-.2-.1-10.9-2.1-12.9-3-3.4-1.5-13-7.4-13-7.4-1.8-1.3-2.2-3.8-1-5.6 0 0 .7-.9 2.4-3.2 1.4-1.9 2.1-2.7 2.1-2.7 1.4-1.7 4-2 5.7-.7 0 0 .6.5 2.5 1.9 2.1 1.5 4.2 3.1 6.3 4.4 2.1 1.4 4.2 2.7 6.2 4 2 1.3 4 2.4 6 3.6l.5.3c.6.3.3 1.7-.7 3.2zm23.5 7.7l-.6.3-.5.3c-.4.2-7.2 1.8-9.4 1.6l-9.6-3.1c-2.1-.6-1.5-4.9-.4-6.4 1.2-1.5 3.4-2.1 3.8-1.8.5.3 3.5 1.8 4.5 2.3 1 .5.4.8 2.3 1.7l1.6.7c3.2 1.3 4.5 1.8 4.5 1.8 2.1.8 4.6 1.7 4.8 1.7.3.1-.2.5-1 .9zm6.6-3.6c-.7.3-1.8.3-2.5.1l-.7-.3c-2.1-.8-4.1-1.7-4.1-1.7-1.9-.9-4.7-2.2-6.3-3l-1.6-.8c-1.5-.8-1.6-.8-1.6-.8-1.8-1-4.2-2.3-4.5-2.5-.3-.2.6-1.5 2-2.9 0 0 3.3-3.1 6.8-6.2 3.6-3.1 8.8-7.4 8.8-7.4 1.6-1.3 4.2-1.4 5.8-.2 0 0 5.6 4.1 9.4 7 3.3 2.5 6.1 4.8 6.1 4.8 1.6 1.3 1.1 3.5.4 3.9-.7.4-2.6 1.6-4.4 2.7l-1.5.9-1.5.9c-1.5.9-4.3 2.4-6.1 3.3 0 0-1.8 1-3.9 1.9l-.6.3zm27.2.4l-14.9 4.6c-2.3.4-5.2-.9-5.7-1.1l-.6-.2-.6-.2c-.9-.4-1.1-.8-.6-1l.5-.2c1.2-.5 2.5-.9 3.9-1.6l1.4-.6c1.7-.8 2.1-1.6 3.9-2.4l1.8-.9c1.7-.9 1.8-1 1.8-1 2-1.1 3.9-2.8 4.8-3.4.9-.5 2.7.2 4 1.6 1.3 1.4 2.4 5.6.3 6.4zm29.6-14.1s-7.7 6.3-10.8 7.6c-2.1.9-9.2 1.9-9.2 1.9-2.1.8-6.4-2.2-7.7-3.7-1.3-1.5-.7-3.7 1.2-4.9l1.8-1.2c2-1.3 4.1-2.7 6.1-4.2 1-.7 2.1-1.5 3.1-2.2 1-.8 2.1-1.6 3.1-2.4 1.9-1.5 2.6-2 2.6-2 1.7-1.4 4.3-1.3 5.8.3l1.2 1.3c2.3 2.5 3.5 4 3.5 4 1.4 1.7 1.1 4.2-.7 5.5zm28.9-29s-6 12.2-9.5 15.1c-4.5 3.6-12.3 7.3-12.5 7.6-.2.2-2.9.2-4.2-1.7 0 0-1-1.5-3.1-4.1l-1.1-1.4c-1.4-1.7-1.1-4.2.6-5.6 0 0 .2-.2 1.8-1.7 4-3.7 8-7.6 11.9-11.6 3.5-3.8 7.6-8.5 7.6-8.5 1.4-1.7 3.7-1.6 5 .2l3.7 5.3c1.4 1.8 1.2 4.7-.2 6.4zm8-18.4c-.4 1.6-3.4 5.8-3.4 5.8-.9 1.9-1.7 3.6-1.7 3.7 0 .1-.9-1.1-2.1-2.8-1.1-1.8-2.3-3.5-2.3-3.5-1.3-1.8-1.2-4.6.2-6.3 0 0 3.4-4.3 6.1-8l.1-.2c.2-.2 1 1.3 1.2 1.9.3.6 2.4 7.3 1.9 9.4zm2.5-42.6c-.7 4.4-4.9 17.3-4.9 17.3-.6 2.2-1.9 2.3-2.9.2 0 0-3.4-7.4-6.7-13.1-2.6-4.5-6.2-9.9-6.2-9.9-1.3-1.9-1.3-5.1-.1-7.1 0 0 .2-.3 1.3-2.3 3.6-6.3 7.6-15 7.6-15 1-2.1 2.1-3.2 2.6-2.4l.4.7c.9 1.6 1.7 3.1 2.6 4.7.8 1.5 1.7 3 2.4 4.6.8 1.5 1.5 3.1 2.2 4.6l.3.6c.3.5 1.8 14.8 1.4 17.1zm-.1-23.5l-.2-.6c-.7-1.6-1.5-3.2-2.3-4.8-.8-1.6-1.6-3.2-2.5-4.9-.8-1.7-1.8-3.2-2.7-4.9v-.1c0-.1.6-1.9 1.4-4.1 0 0 2.1-5.6 3.4-10l.5-1.7c.5-1.8 2.1-1.6 2.5-1s3.7 12.9 3.6 15.2c-.1 3.5-2.4 13.6-2.4 13.6-.5 2.5-1.1 3.9-1.3 3.3zm-82.6-135.5s-.7-.3-1.7-.7c-.1.1-.1.2-.2.3l-.7.7-1-.1c-2.3-.2-5-.2-8.1-.1-10.7.3-23.4 2.2-30.9 3.4-2 .3-3.6.5-4.7.7.4.2.8.5 1.2.7 2.7 1.5 4.8 3.4 8.5 5.7 1.9 1.1 3.8 2.4 5.9 3.7 2.1 1.3 4.2 2.7 6.5 4.2l.8.5c.9.6 2.9.1 4.5-1.2 0 0 .2-1.1 2-2.5 2.2-1.6 3.8-2.9 5.8-4.4 2-1.4 3.3-2.8 5.2-4 3.3-2.3 6-3.9 6-3.9 1.8-1.1 2.7-2.2.9-3z"/>
    <path fill="#51ca00" d="M239.1 109.7c.9 1.3 1.8 2.7 2.6 4.1l.6.9c.9 1.3 1.7 2.7 2.6 4.1.3.5.7 1.1 1 1.6l2.4 3.9c.3.5.6 1 .9 1.4.7 1.1 1.3 2.1 2 3.2.2.4.5.8.7 1.1 0 .1 1.7 5.2 1.8 5.3 2.9-4.1 5.9-8.3 9.1-12.4 2.8-26.8-2.6-66.5-14.3-102.6-2.5 24.4 2.9 75.2-11.8 85.9.6.9 1.2 1.8 1.8 2.8.3.2.5.5.6.7zm53 41.9c6.5-4 13.1-7 19.7-8.9.7-11.3 24.4-26.8 44.3-35.3-21.6 4.8-38.7 9.8-51 15.1-4.1 9.6-8.6 19.4-13 29.1zm-19.7 15.7l1.3-1.3c.3-.3.6-.6.9-.8 2.3-2.2 4.7-4.3 7.2-6.3 6.1-13.1 12.4-26.9 18-40.1l.5-1.1c8.9-21 16.3-41.6 17.1-54.3C281.3 125 247 147 235.9 168.9c-.1.3-.3.6-.4.8-.5.9-.9 1.8-1.3 2.7-.3.7-.6 1.3-.9 2-.1.3-.3.6-.4.9-.4.9-.9 1.9-1.3 2.8-.1.1-.1.2-.2.4-.2.4-.4.9-.5 1.3 1.9 2.7 3.7 5.3 5.3 7.8 0 0 0 .1.1.1.6.9 1.1 1.8 1.6 2.6.3.6.6 1.1 1 1.6 5.7-6.5 11.2-14.7 14.1-24.5l2.7-9.2 1.4 9.4c.7 4.4 1.9 8.8 3.2 13.1.3-.4.7-.8 1-1.2 3.5-4.5 7.3-8.5 11.1-12.2zm-54-47c7.7 11.8 14 24.6 16.8 36.7 3.8-6.8 8.2-13.8 13.1-21-.2-.3-.4-.6-.5-.9-.5-.8-1-1.6-1.5-2.5-.4-.6-.7-1.2-1.1-1.8l-1.5-2.4-2.1-3.3c-.5-.9-1.1-1.7-1.6-2.6-.4-.7-.9-1.3-1.3-2-.6-.9-1.1-1.7-1.7-2.6-.4-.6-.7-1.1-1.1-1.7-.9-1.3-1.7-2.6-2.6-4l-.6-.9c-3.2-4.9-6.4-9.8-9.7-14.7-4.8-7.3-9.4-14.3-13.6-20.8 1 4.9 2.1 10 3.2 15.3 1.9 9.5 4 19.3 5.8 29.2zm92.7 29.2c-.4.1-.8.3-1.2.4-.7.2-1.3.5-2 .7-.5.2-1.1.4-1.6.7-.5.2-1.1.5-1.6.7-.7.3-1.3.6-2 .9l-1.2.6c-.8.4-1.6.8-2.4 1.3-.2.1-.4.2-.7.4-14.2 8-26.3 20.5-35.8 32.5.4 1.1.8 2.1 1.2 3.2 2 5.3 3.5 9.5 3.9 12.7 3.2 1 6.2 2.1 8.6 3.5 2.6-25.3 25.3-41.3 47.9-60.3-3.6.3-7.2 1-10.6 2-.9.2-1.7.5-2.5.7zm-99.2 17c-.5-.6-1.1-1.1-1.6-1.7-7.3-7.7-16.6-15.9-28-23.8l-1.2-.9c-11.4-7.8-24.8-15-40.3-20.9 63.8 57 56.9 73.8 61.3 93.5 4.5-2 7.1-3.5 12.1-3.9 2.6-1.9 7.5-4 12.4-5.6 2.3-1.8 4.8-4 7.5-6.6-4.4-8-11.4-18.4-21.6-29.5-.2-.1-.4-.4-.6-.6zm-24.7-29.8c.6.4 1.2.8 1.7 1.2.3.2.6.5.9.7.6.4 1.2.9 1.7 1.3.5.3.9.7 1.4 1 .5.3.9.7 1.4 1 .7.5 1.3 1 2 1.5.2.2.5.4.7.6 9.3 7.5 16.8 14.9 22.7 21.6 1.8 2 3.5 4 5.1 6.1.1.1.2.3.3.4.3.4.6.8.9 1.1.1.2.3.3.4.5l.3-.6c.4-.8.8-1.7 1.2-2.6.3-.7.7-1.4 1-2.1l.6-1.2c.2-.5.4-.9.7-1.3 0-.3 0-.5-.1-.8 0-.4-.1-.8-.1-1.2-.1-.5-.1-1-.2-1.5 0-.2-.1-.5-.1-.7-2-11.3-7.9-24.7-16.9-38.4l-.4-.5v-.1c-11.3-8.8-45.1-45.9-55.2-53.2 3.5 15.1 43.1 50.7 30 67.2z"/>
    <path fill="#51ca00" d="M230.5 207.2c6.5-1 16.3-2.4 24.7-2.6 2.2-.1 4.1-.1 5.9 0 .1-1.9-1.8-7-3.2-10.8-1.5-4.1-3.3-9-4.6-14-5.9 13.4-16.6 22.5-22.8 27.4z"/>
</svg>
